<?xml version="1.0" encoding="UTF-8" standalone="no"?>
<!-- Created with Inkscape (http://www.inkscape.org/) -->

<svg
   version="1.1"
   id="svg1"
   width="398.92474"
   height="382.25809"
   viewBox="0 0 398.92474 382.25809"
   sodipodi:docname="PigBank.svg"
   inkscape:version="1.3 (0e150ed6c4, 2023-07-21)"
   xmlns:inkscape="http://www.inkscape.org/namespaces/inkscape"
   xmlns:sodipodi="http://sodipodi.sourceforge.net/DTD/sodipodi-0.dtd"
   xmlns="http://www.w3.org/2000/svg"
   xmlns:svg="http://www.w3.org/2000/svg">
  <defs
     id="defs1" />
  <sodipodi:namedview
     id="namedview1"
     pagecolor="#ffffff"
     bordercolor="#000000"
     borderopacity="0.25"
     inkscape:showpageshadow="2"
     inkscape:pageopacity="0.0"
     inkscape:pagecheckerboard="0"
     inkscape:deskcolor="#d1d1d1"
     showgrid="false"
     inkscape:zoom="2.0925"
     inkscape:cx="191.39785"
     inkscape:cy="215.29271"
     inkscape:window-width="1920"
     inkscape:window-height="1051"
     inkscape:window-x="-9"
     inkscape:window-y="-9"
     inkscape:window-maximized="1"
     inkscape:current-layer="g1">
    <inkscape:page
       x="0"
       y="0"
       width="398.92474"
       height="382.25809"
       id="page1"
       margin="0 0.89605737 0 0"
       bleed="0" />
  </sodipodi:namedview>
  <g
     inkscape:groupmode="layer"
     inkscape:label="Image"
     id="g1"
     transform="translate(0,-6.8100358)">
    <path
       style="fill:#000000"
       d="M 0,198 V 7 H 199.5 399 V 198 389 H 199.5 0 Z m 397,0 V 9 H 199 1 V 198 387 H 199 397 Z M 85.142061,384.9774 C 48.313337,379.88094 18.06028,353.69864 8.3147318,318.4877 5.8821044,309.69855 5.5638509,306.87996 5.6626839,295 5.777862,281.15531 7.2693694,273.62431 12.643624,259.75148 c 1.818872,-4.69515 1.814688,-4.8188 -0.372188,-11 C 5.1349411,228.58017 3.3808866,202.31164 7.8475616,182.5 14.733735,151.95684 31.102734,125.30091 55.868124,104.30141 L 62.5,98.677994 63,75.088997 c 0.434128,-20.4813 0.749091,-24.090472 2.390727,-27.395443 2.17159,-4.371884 6.93988,-8.333536 12.357242,-10.266801 4.679944,-1.670107 49.763691,-1.967766 55.529361,-0.366625 4.4343,1.231415 10.13728,5.953308 12.48636,10.338316 0.91383,1.705856 1.90334,5.576556 2.19891,8.601556 0.61713,6.315999 -1.26959,5.849131 16.5374,4.09217 17.08208,-1.685435 43.7515,-0.980083 55.63012,1.471304 2.5934,0.535199 2.63584,0.452962 3.03975,-5.890305 0.47288,-7.426366 3.22769,-11.922254 10.08728,-16.462523 L 237.35248,36.5 H 264.92624 292.5 l 4.57018,2.686775 c 2.5136,1.477725 5.8886,4.58787 7.5,6.911431 l 2.92982,4.224657 0.5,24.227601 0.5,24.2276 6.5,4.843396 c 15.89397,11.8432 34.38212,32.76585 38.88932,44.01023 l 1.25531,3.13169 12.17768,0.40544 c 10.61721,0.35349 12.74952,0.72104 16.64018,2.86831 2.53521,1.39919 5.77434,4.40635 7.5,6.96287 l 3.03751,4.5 0.3173,32.5 c 0.34722,35.5643 0.091,37.75701 -5.10383,43.67356 -5.14914,5.86454 -9.47903,7.2791 -22.35871,7.30448 l -11.14524,0.022 -4.21026,8.23797 c -10.83136,21.19311 -24.82083,38.38397 -44.74926,54.9898 l -7.25,6.04123 v 27.34524 c 0,31.0433 -0.47201,33.66022 -6.77372,37.55489 -4.89251,3.02374 -10.91795,2.72738 -20.54354,-1.01042 -15.51617,-6.02521 -30.38836,-17.7809 -35.72256,-28.23681 C 235.85972,351.76487 234.62098,350 234.20742,350 c -0.41357,0 -6.14192,1.16728 -12.72968,2.59395 -10.46684,2.26675 -14.77892,2.63378 -34.18433,2.9097 l -22.20659,0.31575 -3.79341,3.73558 c -10.62782,10.46578 -25.8137,19.02911 -40.51084,22.8441 -10.59194,2.7494 -26.22945,3.88065 -35.640509,2.57832 z M 119,370.95999 c 26.8668,-7.89241 47.62957,-28.80072 55.13014,-55.51658 3.38891,-12.07077 3.12321,-29.85 -0.61935,-41.44341 C 168.79002,259.37638 163.60272,250.60272 154,241 123.86849,210.86849 76.29048,209.27243 43.696942,237.29975 24.691439,253.64266 14.660113,279.67782 17.79757,304.51862 c 2.825943,22.37439 13.246499,40.14471 31.629138,53.9376 9.294682,6.974 17.716017,10.46418 36.073292,14.9504 5.073617,1.23991 26.20385,-0.30331 33.5,-2.44663 z M 92.571429,345.42857 C 91.683913,344.54106 91,342.17176 91,339.98465 c 0,-3.77169 -0.157832,-3.94333 -6.063277,-6.59353 -7.009922,-3.14587 -12.444822,-8.85062 -14.025907,-14.72232 -1.375076,-5.10665 -0.474827,-8.4547 2.657062,-9.88168 4.265001,-1.94327 7.575238,-0.0194 9.572659,5.56354 1.965428,5.4935 3.730883,7.15939 9.222086,8.70199 5.346026,1.50181 10.669727,0.36935 14.984917,-3.18759 4.37285,-3.60448 4.76745,-7.06579 1.26921,-11.13331 -1.92545,-2.23878 -4.60649,-3.33821 -14.017509,-5.74821 -12.827909,-3.285 -18.025841,-6.10562 -22.108638,-11.9971 -5.057204,-7.29755 -5.34851,-14.8453 -0.874992,-22.67109 2.735648,-4.78564 6.649529,-7.88547 13.85225,-10.97112 4.666427,-1.99911 5.055674,-2.43516 5.355983,-6 0.560653,-6.65531 5.016103,-9.24592 9.953646,-5.78753 1.71324,1.2 2.22251,2.54622 2.22251,5.875 0,4.07198 0.18538,4.35536 3.25,4.96805 5.15994,1.0316 13.35835,7.0625 16.06969,11.82115 4.58829,8.0529 4.21889,15.10385 -0.85806,16.37809 -4.23426,1.06273 -7.21667,-0.97179 -8.50889,-5.80454 -1.42872,-5.34323 -2.3006,-6.41185 -7.38584,-9.05238 -13.21675,-6.86286 -30.525834,4.41266 -22.478604,14.64305 2.63823,3.35397 6.190043,5.17789 11.911704,6.1169 13.49582,2.21485 23.63402,7.98448 26.63012,15.15516 2.83305,6.78045 1.2583,16.49273 -3.51618,21.68607 C 115.34418,330.35598 107.10714,335 104.53324,335 103.39084,335 103,336.10758 103,339.34501 c 0,2.93939 -0.5916,4.88041 -1.82874,6 -2.309898,2.09043 -6.551746,2.13165 -8.599831,0.0836 z M 287.01531,343.25 c 0.008,-16.3625 0.34592,-30.25368 0.75,-30.86928 0.40408,-0.6156 4.33208,-3.97085 8.72889,-7.45609 19.34204,-15.33198 34.55713,-33.93703 44.63499,-54.5798 3.2638,-6.68535 6.63173,-12.42285 7.48429,-12.75 0.85255,-0.32716 7.16064,-0.59483 14.01797,-0.59483 12.93205,0 17.42095,-1.08822 18.74737,-4.5448 C 381.72047,231.56487 382,216.90277 382,199.87276 v -30.96367 l -2.45455,-2.45454 c -2.34859,-2.34859 -3.00688,-2.45514 -15.25,-2.4682 -7.0375,-0.008 -13.79909,-0.28268 -15.02576,-0.61149 -1.52485,-0.40873 -3.2219,-2.69763 -5.3652,-7.23634 -7.74256,-16.39583 -17.8871,-28.11829 -37.30705,-43.10993 -5.70705,-4.40567 -10.65117,-8.72623 -10.98695,-9.60124 C 295.27472,102.55234 295,91.052775 295,77.872758 V 53.909091 L 292.54545,51.454545 290.09091,49 265.29545,49.0318 c -18.75736,0.02406 -25.21203,0.3483 -26.50614,1.331495 C 236.06336,52.434338 235,56.55351 235,65.042047 c 0,7.294031 -0.19143,8.037275 -2.45144,9.518095 -2.23324,1.463271 -3.11349,1.469336 -9.88901,0.06813 -19.55305,-4.043656 -52.70515,-4.094934 -73.50007,-0.113686 -7.60181,1.455389 -8.55392,1.456989 -10.75,0.01806 C 136.20317,73.087018 136,72.293841 136,65.12617 136,56.368057 134.68499,51.436961 131.96056,49.978891 130.91064,49.416993 119.72429,49 105.7006,49 82.49873,49 81.137169,49.104263 78.634859,51.07258 L 76,53.14516 v 25.108704 25.108706 l -4.710698,4.06871 c -11.759503,10.1569 -24.778894,23.63617 -30.418307,31.49275 -7.123765,9.92452 -15.043541,25.95901 -18.4608,37.37601 -5.419234,18.10555 -5.772901,42.60411 -0.859234,59.51925 l 1.545196,5.31929 7.086982,-7.11514 C 42.570137,221.58722 54.732229,214.26636 72,208.85216 c 6.676602,-2.09341 9.421263,-2.35161 25,-2.35187 16.98235,-2.8e-4 17.7958,0.0951 27.5,3.22474 41.47883,13.37705 67.31612,51.79137 63.39753,94.25808 -1.19176,12.91542 -4.17509,23.25565 -9.42027,32.65065 -3.88119,6.95189 -3.60462,7.36624 4.91679,7.36624 9.41809,0 25.94577,-1.67389 35.60595,-3.6061 12.03026,-2.40626 11.1335,-1.63454 10.38531,-8.93726 C 228.55401,323.34262 230.29955,320 235.36807,320 c 4.7239,0 6.29189,2.35038 6.89749,10.33919 1.11348,14.68852 12.13853,29.29315 27.80623,36.83426 10.40383,5.00753 12.12295,5.68201 14.67821,5.75887 L 287,373 Z M 276.5,260.10015 c -5.97728,-2.77335 -10.53662,-8.11189 -12.11081,-14.18056 -1.86385,-7.18531 -0.42881,-10.29161 4.95954,-10.73542 4.36551,-0.35956 6.56682,1.60908 6.61947,5.91981 0.0387,3.17294 3.92377,7.57982 7.46598,8.46886 5.00506,1.25619 11.56582,-3.46061 11.56582,-8.31515 0,-5.94176 8.34164,-8.7183 11.53777,-3.84038 2.94256,4.49091 0.2724,12.62509 -6.21182,18.92319 -6.01406,5.84145 -15.95747,7.41048 -23.82595,3.75965 z"
       id="path1" />
    <path
       style="fill:#f9f9f9;stroke-width:0.477897"
       d="M 1.1947431,191.39785 V 2.6284349 H 199.04421 396.89367 V 191.39785 380.16726 H 199.04421 1.1947431 Z M 106.7094,378.2397 c 20.89947,-2.22419 39.43215,-10.73463 54.40437,-24.98319 l 4.36348,-4.15257 10.21239,-0.0167 c 13.51859,-0.0221 32.79878,-0.75008 36.97464,-1.39615 2.64602,-0.40939 14.48686,-2.75966 20.62401,-4.09362 0.87364,-0.1899 1.48737,0.52029 4.03772,4.67231 7.49462,12.20137 22.82474,23.33158 39.71115,28.83168 5.51298,1.79564 11.54374,1.89719 14.88887,0.2507 3.56724,-1.75581 5.81194,-4.16636 6.72397,-7.22078 1.14008,-3.81814 1.68384,-16.31391 1.69702,-38.99781 l 0.0114,-19.64297 6.57109,-5.43358 c 20.26114,-16.75379 35.32237,-35.52427 46.65722,-58.14786 l 2.69366,-5.37634 7.04499,-0.0123 c 9.26596,-0.0162 15.58214,-0.66509 19.04392,-1.9564 3.52821,-1.3161 8.73657,-6.1535 10.44875,-9.70456 2.0099,-4.16853 2.21351,-8.25636 2.06413,-41.4417 l -0.13905,-30.89276 -2.32793,-3.40673 c -4.77095,-6.98189 -9.50476,-9.82689 -17.55883,-10.55278 -2.73014,-0.24607 -7.11443,-0.4565 -9.74287,-0.46764 -2.62843,-0.0111 -5.9255,-0.15793 -7.32682,-0.32621 -2.17059,-0.26067 -2.61758,-0.49003 -3.01876,-1.54902 -4.71639,-12.44963 -22.47438,-32.65878 -41.15115,-46.831265 -2.5609,-1.943293 -4.69026,-3.556196 -4.73189,-3.58423 -0.0416,-0.02803 -0.31045,-10.927388 -0.59737,-24.220793 l -0.52168,-24.16983 -1.3976,-2.114519 c -2.35808,-3.567675 -6.498,-7.545005 -10.18061,-9.780769 l -3.50946,-2.130643 h -27.72267 -27.72267 l -3.44317,2.324611 c -5.72079,3.862309 -8.67981,7.353509 -9.96719,11.759751 -0.23258,0.796015 -0.6372,3.482745 -0.89916,5.970513 -0.26197,2.487768 -0.65144,4.698353 -0.86549,4.912408 -0.21406,0.214055 -2.41517,0.07026 -4.89136,-0.319536 -11.6815,-1.838892 -37.26738,-2.318509 -52.2919,-0.98023 -4.46834,0.398007 -9.64013,0.854935 -11.49287,1.015393 -4.28406,0.371025 -4.74258,-0.03127 -5.16049,-4.52778 -0.65911,-7.091831 -3.1629,-11.970048 -8.09785,-15.777334 -4.37021,-3.371592 -6.12975,-3.901815 -14.81523,-4.464442 -8.32616,-0.53935 -38.183192,-0.182738 -44.225678,0.528232 -4.473514,0.526362 -8.714322,2.632198 -12.135225,6.025925 -3.103479,3.07883 -4.456875,5.680347 -5.120593,9.842881 -0.457309,2.868058 -1.384549,28.565732 -1.480731,41.037278 l -0.0387,5.017921 -5.983747,5.017922 C 21.650952,125.85026 2.5149756,167.74458 5.4623178,208.12425 c 0.9207742,12.61495 2.7806437,22.30058 6.4635952,33.66042 0.931787,2.87404 1.694159,5.81259 1.694159,6.5301 0,0.7175 -0.766407,3.31225 -1.703128,5.7661 -2.3046855,6.0374 -4.318976,12.93601 -5.3233282,18.23153 -0.6682285,3.52328 -0.8316344,7.03223 -0.8275771,17.77123 l 0.00506,13.38113 1.5255455,5.61091 c 3.0897208,11.3639 7.0246898,20.16795 13.0304148,29.15408 13.91874,20.82606 36.163908,35.11091 61.871272,39.73096 4.594342,0.82568 17.946089,0.97766 24.511069,0.27899 z"
       id="path2"
       transform="translate(0,6.8100358)" />
    <path
       style="fill:#f9f9f9;stroke-width:0.477897"
       d="M 1.1947431,191.39785 V 2.6284349 H 199.04421 396.89367 V 191.39785 380.16726 H 199.04421 1.1947431 Z M 112.06691,377.62537 c 5.67742,-1.01024 9.65737,-1.98019 14.05936,-3.42637 4.91278,-1.614 13.37489,-5.23411 15.09057,-6.45578 0.73925,-0.52639 1.54744,-0.95708 1.79598,-0.95708 0.24855,0 1.30101,-0.5914 2.33881,-1.31422 1.03779,-0.72282 2.38751,-1.60179 2.99937,-1.95328 2.06856,-1.18831 9.81432,-7.39719 12.78386,-10.24733 1.62298,-1.55772 3.34341,-3.10221 3.82318,-3.4322 0.64283,-0.44214 5.77528,-0.68215 19.5103,-0.91234 16.63477,-0.27879 26.80745,-0.76418 29.62963,-1.41377 0.52569,-0.121 4.50418,-0.89502 8.8411,-1.72005 4.33692,-0.82503 8.45923,-1.69061 9.16069,-1.92352 1.67153,-0.55499 2.01754,-0.24066 5.65001,5.13282 6.53955,9.6739 15.71163,17.33964 28.09134,23.4779 7.02605,3.48374 11.63313,5.07443 16.89432,5.83314 3.87517,0.55883 4.31759,0.52994 7.4074,-0.48379 9.61415,-3.15427 10.1809,-5.7444 10.20677,-46.6467 l 0.0124,-19.59379 2.74612,-2.2293 c 1.51038,-1.2261 3.43017,-2.83901 4.26623,-3.58423 0.83605,-0.74521 2.66401,-2.30758 4.06212,-3.47193 1.39812,-1.16435 5.66274,-5.25037 9.47693,-9.08005 14.405,-14.46347 23.96461,-27.89908 34.28187,-48.18168 l 1.27625,-2.50896 7.42733,-0.001 c 8.75746,-0.002 15.01637,-0.68236 18.65598,-2.02917 2.01684,-0.74633 3.48612,-1.83737 6.29921,-4.67761 3.16081,-3.19131 3.82155,-4.15795 4.77161,-6.98074 l 1.10276,-3.27649 0.12774,-33.51058 0.12775,-33.51058 -1.79302,-2.49197 c -4.73485,-6.58055 -9.03552,-9.85071 -14.4573,-10.9931 -1.44564,-0.3046 -7.00973,-0.74877 -12.36465,-0.98705 -10.03419,-0.44648 -12.00811,-0.88179 -12.00811,-2.64811 0,-2.24749 -7.8976,-14.08325 -14.16936,-21.23495 -7.68783,-8.76646 -22.14195,-22.007404 -29.73596,-27.240144 l -1.73387,-1.194744 v -5.734767 c 0,-3.154121 -0.18938,-13.476702 -0.42086,-22.939068 -0.23147,-9.462365 -0.39067,-17.778251 -0.35378,-18.479746 0.0369,-0.701495 -0.25759,-1.600112 -0.65441,-1.996928 -0.39681,-0.396815 -0.72148,-0.915249 -0.72148,-1.152075 0,-1.26058 -9.4382,-10.151418 -10.77638,-10.151418 -0.1669,0 -0.85025,-0.430108 -1.51855,-0.955794 -1.18371,-0.93111 -1.93872,-0.955795 -29.23349,-0.955795 h -28.01839 l -2.45296,1.651921 c -7.63496,5.141679 -10.67154,9.711227 -11.64111,17.517891 -0.3138,2.526671 -0.74581,4.877519 -0.96002,5.224114 -0.32013,0.517983 -1.73614,0.474791 -7.95402,-0.242619 -13.31628,-1.536406 -42.51224,-1.54821 -55.11533,-0.02228 -4.33014,0.524278 -7.86078,0.61645 -8.87291,0.231642 -0.80533,-0.306184 -1.18841,-0.922236 -1.39063,-2.23632 -0.76646,-4.980559 -1.79759,-8.99865 -2.83079,-11.030889 -2.50111,-4.919577 -8.66305,-9.653414 -13.92637,-10.698783 -2.77391,-0.550936 -31.03149,-0.852353 -43.708097,-0.466223 -9.790313,0.298213 -13.72821,1.576367 -18.517434,6.01034 -3.425204,3.171134 -5.151039,6.23369 -5.810432,10.310808 -0.401592,2.483101 -1.640507,28.605777 -1.422165,29.986446 0.03122,0.197414 0.0313,3.838198 1.72e-4,8.090628 -0.04182,5.713434 -0.221615,7.89654 -0.688774,8.363202 -0.347699,0.347331 -1.666734,1.491723 -2.931188,2.543097 -4.974934,4.136588 -6.426853,5.455694 -11.963281,10.869004 -3.156877,3.08668 -6.804554,6.93179 -8.105948,8.5447 -1.301394,1.61291 -2.591717,3.17347 -2.867383,3.46791 -2.353789,2.5141 -9.081266,12.23052 -12.778949,18.4565 -3.128789,5.2681 -9.148257,17.86149 -9.759036,20.41698 -0.174483,0.73004 -0.479479,1.5424 -0.677768,1.80524 -1.302919,1.7271 -5.3366326,17.91783 -6.5194804,26.16823 -1.1002657,7.6744 -1.0816124,26.32179 0.032145,32.13524 0.100713,0.52568 0.3246298,2.03106 0.4975928,3.34528 0.469924,3.5706 2.1049878,11.59065 2.9716105,14.57586 1.4467131,4.98342 3.0587251,10.27668 3.3473981,10.99164 0.570743,1.41356 0.609277,3.13296 0.105063,4.688 -0.282067,0.86992 -0.566983,1.83767 -0.633146,2.15054 -0.06616,0.31288 -0.251982,0.89145 -0.412932,1.28571 -1.117044,2.73633 -3.429975,10.09214 -4.432904,14.09797 -1.5823699,6.32019 -2.0738667,12.15745 -2.0932927,24.861 -0.01403,9.17483 0.1077873,10.95164 0.9501706,13.85902 0.5314452,1.83422 1.0520253,3.68684 1.1568444,4.11695 0.9043661,3.71089 4.1749467,12.23226 6.5505067,17.06708 10.753141,21.88518 29.716322,38.43944 53.453028,46.66282 5.948378,2.06076 11.576167,3.46689 15.531661,3.88066 1.577061,0.16497 2.97491,0.40401 3.106332,0.53119 0.536851,0.51954 21.953936,-0.2903 25.806456,-0.97581 z"
       id="path3"
       transform="translate(0,6.8100358)" />
  </g>
</svg>
